<svg xmlns="http://www.w3.org/2000/svg" width="134" height="134" viewBox="0 0 134 134" fill="none">
  <defs>
    <filter id="filter0_d_3_16001" x="0" y="0" width="134" height="134" filterUnits="userSpaceOnUse" color-interpolation-filters="sRGB">
      <feFlood flood-opacity="0" result="BackgroundImageFix"/>
      <feColorMatrix in="SourceAlpha" type="matrix" values="0 0 0 0 0 0 0 0 0 0 0 0 0 0 0 0 0 0 127 0" result="hardAlpha"/>
      <feOffset dy="7"/>
      <feGaussianBlur stdDeviation="15"/>
      <feComposite in2="hardAlpha" operator="out"/>
      <feColorMatrix type="matrix" values="0 0 0 0 0.00784314 0 0 0 0 0.52549 0 0 0 0 0.74902 0 0 0 0.3 0"/>
      <feBlend mode="normal" in2="BackgroundImageFix" result="effect1_dropShadow_3_16001"/>
      <feBlend mode="normal" in="SourceGraphic" in2="effect1_dropShadow_3_16001" result="shape"/>
    </filter>
    <filter id="filter1_d_3_16001" x="35.291" y="38.0625" width="62.8228" height="53.871" filterUnits="userSpaceOnUse" color-interpolation-filters="sRGB">
      <feFlood flood-opacity="0" result="BackgroundImageFix"/>
      <feColorMatrix in="SourceAlpha" type="matrix" values="0 0 0 0 0 0 0 0 0 0 0 0 0 0 0 0 0 0 127 0" result="hardAlpha"/>
      <feOffset dy="5"/>
      <feGaussianBlur stdDeviation="7.5"/>
      <feComposite in2="hardAlpha" operator="out"/>
      <feColorMatrix type="matrix" values="0 0 0 0 0 0 0 0 0 0 0 0 0 0 0 0 0 0 0.1 0"/>
      <feBlend mode="normal" in2="BackgroundImageFix" result="effect1_dropShadow_3_16001"/>
      <feBlend mode="normal" in="SourceGraphic" in2="effect1_dropShadow_3_16001" result="shape"/>
    </filter>
    <linearGradient id="paint0_linear_3_16001" x1="47.4528" y1="29.283" x2="85.8491" y2="90.717" gradientUnits="userSpaceOnUse">
      <stop stop-color="#49AFDB"/>
      <stop offset="1" stop-color="#0286BF"/>
    </linearGradient>
  </defs>
  <g filter="url(#filter0_d_3_16001)">
    <circle cx="67" cy="60" r="37" fill="url(#paint0_linear_3_16001)"/>
  </g>
  <g filter="url(#filter1_d_3_16001)">
    <path d="M78.3097 48.8984L62.3908 65.0433L55.0949 57.6435C53.9961 56.5291 52.2142 56.5289 51.1153 57.6433C50.0163 58.7579 50.0163 60.5649 51.1153 61.6795L60.4009 71.0974C60.9286 71.6327 61.6443 71.9335 62.3906 71.9335C62.3908 71.9335 62.3906 71.9335 62.3908 71.9335C63.1371 71.9335 63.8528 71.6327 64.3805 71.0976L82.2894 52.9347C83.3883 51.8201 83.3883 50.0131 82.2894 48.8985C81.1904 47.7839 79.4087 47.7838 78.3097 48.8984Z" fill="white"/>
  </g>
</svg>