<svg xmlns="http://www.w3.org/2000/svg" width="120" height="120" viewBox="0 0 120 120" fill="none">
  <g filter="url(#filter0_d_3_15991)">
    <circle cx="60" cy="53" r="30" fill="#FFA32F" fill-opacity="0.16" shape-rendering="crispEdges"/>
  </g>
  <path d="M65.1628 39.4531C62.4078 39.4531 59.8481 40.64 58.0648 42.7285C56.9177 42.1146 55.6431 41.7919 54.3463 41.7919C49.9939 41.7919 46.4531 45.3326 46.4531 49.685C46.4531 54.0374 49.9939 57.5781 54.3463 57.5781H54.4141C55.1227 59.3439 56.8054 60.5015 58.7314 60.5015C60.5134 60.5015 62.1307 59.4713 62.9106 57.8892C63.6461 58.0704 64.4015 58.1628 65.1628 58.1628C70.3208 58.1628 74.5176 53.966 74.5176 48.8079C74.5176 43.6499 70.3208 39.4531 65.1628 39.4531ZM65.1616 56.9934C64.3396 56.9934 63.5269 56.8718 62.7446 56.6298C62.4475 56.5374 62.1272 56.6988 62.0219 56.9934C61.5261 58.392 60.2036 59.3322 58.7314 59.3322C57.1714 59.3322 55.8255 58.316 55.3823 56.8052C55.3086 56.555 54.9964 56.3913 54.7298 56.3913H54.6853C54.5719 56.3994 54.4597 56.4077 54.3451 56.4077C50.637 56.4077 47.6213 53.3907 47.6213 49.6838C47.6213 45.977 50.6371 42.96 54.3451 42.96C55.5951 42.96 56.8218 43.3132 57.8929 43.9809C58.1479 44.1399 58.4823 44.0803 58.6658 43.8406C60.234 41.7954 62.6019 40.6225 65.1616 40.6225C69.6742 40.6225 73.3471 44.2943 73.3471 48.808C73.3471 53.3217 69.6742 56.9934 65.1616 56.9934Z" fill="#FFA22F" stroke="#FFA22F" stroke-width="0.4"/>
  <path d="M52.4999 61.7109C51.21 61.7109 50.1611 62.7598 50.1611 64.0497C50.1611 65.3395 51.21 66.3884 52.4999 66.3884C53.7897 66.3884 54.8386 65.3395 54.8386 64.0497C54.8386 62.7598 53.7897 61.7109 52.4999 61.7109ZM52.4999 65.219C51.8544 65.219 51.3305 64.6939 51.3305 64.0497C51.3305 63.4054 51.8544 62.8803 52.4999 62.8803C53.1453 62.8803 53.6692 63.4054 53.6692 64.0497C53.6692 64.6939 53.1453 65.219 52.4999 65.219Z" fill="#FFA22F"/>
  <path d="M47.2394 66.1875C46.2723 66.1875 45.4854 66.9745 45.4854 67.9415C45.4854 68.9086 46.2723 69.6956 47.2394 69.6956C48.2065 69.6956 48.9934 68.9086 48.9934 67.9415C48.9934 66.9745 48.2065 66.1875 47.2394 66.1875ZM47.2394 68.5262C46.9178 68.5262 46.6547 68.2643 46.6547 67.9415C46.6547 67.6188 46.9178 67.3568 47.2394 67.3568C47.561 67.3568 47.8241 67.6188 47.8241 67.9415C47.8241 68.2643 47.561 68.5262 47.2394 68.5262Z" fill="#FFA22F"/>
  <defs>
    <filter id="filter0_d_3_15991" x="0" y="0" width="120" height="120" filterUnits="userSpaceOnUse" color-interpolation-filters="sRGB">
      <feFlood flood-opacity="0" result="BackgroundImageFix"/>
      <feColorMatrix in="SourceAlpha" type="matrix" values="0 0 0 0 0 0 0 0 0 0 0 0 0 0 0 0 0 0 127 0" result="hardAlpha"/>
      <feOffset dy="7"/>
      <feGaussianBlur stdDeviation="15"/>
      <feComposite in2="hardAlpha" operator="out"/>
      <feColorMatrix type="matrix" values="0 0 0 0 0.95 0 0 0 0 0.528251 0 0 0 0 0 0 0 0 0.12 0"/>
      <feBlend mode="normal" in2="BackgroundImageFix" result="effect1_dropShadow_3_15991"/>
      <feBlend mode="normal" in="SourceGraphic" in2="effect1_dropShadow_3_15991" result="shape"/>
    </filter>
  </defs>
</svg>